# xmcd
#
# Track frame offsets:
#	150
#	14062
#	25295
#	38580
#	49072
#	62077
#	73665
#	86665
#	98670
#	109732
#	125177
#	140137
#	154570
#	168492
#	179305
#	188820
#	201902
#	215162
#	228595
#	242250
#	251770
#	262127
#
# Disc length: 3667 seconds
#
# Revision: 0
# Processed by: cddbd v1.5.2PL0 Copyright (c) Steve Scherf et al.
# Submitted via: EasyCDDAExtractor 16.0.8.2
#
DISCID=480e5116
DTITLE=Μητσιάς Μανώλης - Αξέχαστες επιτυχίες-Μητσιάς Μανώλης
DYEAR=1982
DGENRE=Ελαφρολαϊκή
TTITLE0=Αυτά τα χέρια [Δ. Μούτση-Λ. Παπαδόπουλου]
TTITLE1=Η φωτογραφία [Λ. Κηλαϊδόνη-Κ. Μητρόπουλου]
TTITLE2=Απόψε φθινοπώριασε [Μ. Χατζιδάκι-Ν. Γκάτσου]
TTITLE3=Όσο αγαπιόμαστε τα δυό [Λ. Κηλαϊδόνη]
TTITLE4=Κορίτσι με τα παντελόνια [Λ.Κόκοτου-Λ.Παπαδόπουλου]
TTITLE5=Με λένε Γιώργο [Γ. Χατζηνάσιου-Γ. Κανελλόπουλου]
TTITLE6=Πάρε τον ηλεκτρικό [Γ. Χατζηνάσιου-Γ. Λογοθέτη]
TTITLE7=Στην Ελευσίνα μιά φορά [Δ. Μούτση-Β. Ανδρεόπουλου]
TTITLE8=Κοίταξε να δεις [Λ. Κηλαϊδόνη-Γ. Λογοθέτη]
TTITLE9=Μη χτυπάς [Λ. Κηλαϊδόνη-Μ. Ελευθερίου]
TTITLE10=Αχ Μαρία [Λ. Κηλαϊδόνη-Γ. Λογοθέτη]
TTITLE11=Το καλοκαίρι σαν θα 'ρθεί [Λ. Κηλαϊδόνη]
TTITLE12=Έλα αύριο βράδυ στις εννιά [Ε. Καραΐνδρου]
TTITLE13=Με το πρώτο λεωφορείο [Δ. Μούτση-Γ. Λογοθέτη]
TTITLE14=Μιά Κεφαλωνήτισσα [Λ. Κηλαϊδόνη-Ν. Γκάτσου]
TTITLE15=Τι να πούμε τι [Γ. Χατζηνάσιου-Γ. Λογοθέτη]
TTITLE16=Μικρή Ραλλού [Μ. Χατζιδάκι-Ν. Γκάτσου]
TTITLE17=Μη ρωτάς [Δ. Μούτση-Ν. Γκάτσου]
TTITLE18=Ο τρελλός [Ά. Πάνου-Α. Μπακιρτζή]
TTITLE19=Πού θα πάει, πού θα βγει [Γ.Χατζηνάσιου-Τ.Οικονόμου]
TTITLE20=Φωνάζουν οι γειτόνοι [Μ. Τόκα]
TTITLE21=Ο αλήτης [Μ. Τόκα]
EXTD=
EXTT0=
EXTT1=
EXTT2=
EXTT3=
EXTT4=
EXTT5=
EXTT6=
EXTT7=
EXTT8=
EXTT9=
EXTT10=
EXTT11=
EXTT12=
EXTT13=
EXTT14=
EXTT15=
EXTT16=
EXTT17=
EXTT18=
EXTT19=
EXTT20=
EXTT21=
PLAYORDER=
